<svg width="50" height="50" viewBox="0 0 50 50" fill="none" xmlns="http://www.w3.org/2000/svg">
<g clip-path="url(#clip0_1_6)">
<g clip-path="url(#clip1_1_6)">
<path d="M37.2597 14.9921C37.2597 14.6963 37.2016 14.4034 37.0885 14.1301C36.9753 13.8569 36.8095 13.6086 36.6004 13.3994C36.3913 13.1902 36.143 13.0243 35.8698 12.9111C35.5966 12.7979 35.3037 12.7397 35.0079 12.7397C34.4105 12.7397 33.8375 12.9769 33.415 13.3993C32.9925 13.8217 32.755 14.3946 32.7548 14.9921C32.7558 15.5889 32.9936 16.1609 33.4161 16.5825C33.8386 17.0041 34.4111 17.2407 35.0079 17.2403C35.6046 17.2405 36.1769 17.0038 36.5991 16.5822C37.0213 16.1606 37.2589 15.5887 37.2597 14.9921Z" fill="url(#paint0_linear_1_6)"/>
<path d="M40.2598 32.5755C40.2449 33.764 40.0275 34.9412 39.617 36.0566C39.3154 36.8712 38.8344 37.6075 38.2097 38.211C37.6072 38.8347 36.8711 39.3136 36.0567 39.6114C34.9406 40.0258 33.7618 40.2461 32.5714 40.2626C30.5949 40.3494 30.009 40.3682 24.9962 40.3682C19.9833 40.3682 19.3982 40.3494 17.421 40.2626C16.2328 40.2459 15.0563 40.0257 13.9426 39.6114C13.128 39.314 12.3914 38.8356 11.7882 38.2124C11.1627 37.6102 10.6826 36.8734 10.3844 36.058C9.97153 34.9432 9.75406 33.7656 9.74154 32.5769C9.64494 30.6004 9.62756 30.0055 9.62756 25.0017C9.62756 19.9979 9.64494 19.3995 9.74154 17.423C9.75487 16.2328 9.97231 15.0537 10.3844 13.937C10.6823 13.1214 11.1624 12.3846 11.7882 11.7826C12.3924 11.1596 13.1286 10.6801 13.9426 10.3795C15.0572 9.96614 16.2344 9.74706 17.4231 9.73175C19.3996 9.64488 19.9896 9.62264 24.9983 9.62264C30.0069 9.62264 30.5963 9.64488 32.5735 9.73175C33.7637 9.74719 34.9425 9.96626 36.0587 10.3795C36.8729 10.6799 37.6092 11.1595 38.2132 11.7826C38.8381 12.3859 39.3192 13.1223 39.6205 13.937C40.0302 15.0543 40.2476 16.233 40.2633 17.423C40.3551 19.3995 40.3773 19.9895 40.3773 25.0017C40.3773 30.0138 40.3551 30.5983 40.2633 32.5769L40.2598 32.5755ZM43.6353 17.2694C43.6062 15.7128 43.3105 14.1727 42.7611 12.716C42.293 11.4632 41.5556 10.3285 40.6011 9.39191C39.6643 8.43973 38.5318 7.7025 37.2819 7.23125C35.8245 6.68498 34.2846 6.39165 32.7284 6.36392C30.7304 6.26732 30.0924 6.25272 24.9976 6.25272C19.9027 6.25272 19.2647 6.2701 17.266 6.3667C15.7103 6.39536 14.1707 6.68841 12.7132 7.23333C11.4655 7.7059 10.3348 8.443 9.39892 9.394C8.44476 10.3311 7.70604 11.4646 7.23408 12.716C6.68888 14.1739 6.39309 15.7132 6.35911 17.2694C6.27224 19.2682 6.25 19.9075 6.25 25.0024C6.25 30.0972 6.27224 30.7303 6.35911 32.7312C6.3945 34.2863 6.69025 35.8245 7.23408 37.2818C7.70592 38.5324 8.44468 39.6651 9.39892 40.601C10.3344 41.5535 11.4651 42.2921 12.7132 42.7659C14.1711 43.3098 15.7103 43.6039 17.266 43.636C19.2647 43.7277 19.9069 43.7499 24.9976 43.7499C30.0882 43.7499 30.7304 43.7277 32.7284 43.636C34.2843 43.605 35.8236 43.3108 37.2812 42.7659C38.5315 42.2934 39.664 41.5547 40.6004 40.601C41.5547 39.6661 42.2921 38.5331 42.7604 37.2818C43.3088 35.8258 43.605 34.2868 43.636 32.7312C43.7278 30.7324 43.75 30.0937 43.75 25.0038C43.75 19.9138 43.7278 19.2696 43.636 17.2708L43.6353 17.2694Z" fill="url(#paint1_linear_1_6)"/>
<path d="M24.9976 31.2468C23.3409 31.2473 21.7518 30.5898 20.5798 29.4187C19.4079 28.2477 18.7491 26.6591 18.7484 25.0024C18.7484 23.3445 19.4066 21.7545 20.5784 20.5816C21.7502 19.4088 23.3397 18.7492 24.9976 18.7477C26.6564 18.7477 28.2473 19.4067 29.4203 20.5797C30.5933 21.7527 31.2523 23.3436 31.2523 25.0024C31.2507 26.6598 30.5908 28.2487 29.4179 29.4197C28.2449 30.5907 26.655 31.2479 24.9976 31.2468ZM24.9976 15.368C22.4438 15.3695 19.9952 16.3852 18.1903 18.1919C16.3854 19.9985 15.372 22.448 15.3729 25.0017C15.3728 26.2657 15.6217 27.5174 16.1053 28.6852C16.589 29.853 17.2979 30.9141 18.1917 31.8079C19.0854 32.7017 20.1464 33.4107 21.3142 33.8944C22.482 34.3781 23.7336 34.6271 24.9976 34.6271C27.5508 34.6273 29.9996 33.6134 31.8054 31.8084C33.6112 30.0033 34.6262 27.555 34.6271 25.0017C34.6271 22.4474 33.6127 19.9977 31.8069 18.1912C30.0012 16.3846 27.5519 15.3691 24.9976 15.368Z" fill="url(#paint2_linear_1_6)"/>
</g>
</g>
<defs>
<linearGradient id="paint0_linear_1_6" x1="6.59542" y1="43.371" x2="40.6202" y2="9.31916" gradientUnits="userSpaceOnUse">
<stop stop-color="#FFD521"/>
<stop offset="0.05" stop-color="#FFD521"/>
<stop offset="0.501" stop-color="#F50000"/>
<stop offset="0.95" stop-color="#B900B4"/>
<stop offset="1" stop-color="#B900B4"/>
</linearGradient>
<linearGradient id="paint1_linear_1_6" x1="6.5875" y1="43.4125" x2="40.635" y2="9.32498" gradientUnits="userSpaceOnUse">
<stop stop-color="#FFD521"/>
<stop offset="0.05" stop-color="#FFD521"/>
<stop offset="0.501" stop-color="#F50000"/>
<stop offset="0.95" stop-color="#B900B4"/>
<stop offset="1" stop-color="#B900B4"/>
</linearGradient>
<linearGradient id="paint2_linear_1_6" x1="6.59298" y1="43.4092" x2="40.6623" y2="9.34856" gradientUnits="userSpaceOnUse">
<stop stop-color="#FFD521"/>
<stop offset="0.05" stop-color="#FFD521"/>
<stop offset="0.501" stop-color="#F50000"/>
<stop offset="0.95" stop-color="#B900B4"/>
<stop offset="1" stop-color="#B900B4"/>
</linearGradient>
<clipPath id="clip0_1_6">
<rect width="50" height="50" fill="white"/>
</clipPath>
<clipPath id="clip1_1_6">
<rect width="37.5" height="37.5" fill="white" transform="translate(6.25 6.25)"/>
</clipPath>
</defs>
</svg>
